<svg width="74" height="74" viewBox="0 0 74 74" fill="none" xmlns="http://www.w3.org/2000/svg">
<path d="M37 69.9259C56.2993 69.9259 71.9444 54.2807 71.9444 34.9814C71.9444 15.6822 56.2993 0.0370026 37 0.0370026C17.7007 0.0370026 2.05554 15.6822 2.05554 34.9814C2.05554 54.2807 17.7007 69.9259 37 69.9259Z" fill="#FFCB4C"/>
<path d="M29.855 43.2406C29.5468 42.9975 29.3225 42.664 29.2136 42.2868C29.1449 42.0694 29.1223 41.8401 29.1471 41.6134C29.1719 41.3868 29.2436 41.1677 29.3577 40.9703C29.4718 40.7729 29.6257 40.6014 29.8097 40.4667C29.9937 40.3321 30.2037 40.2372 30.4264 40.1881C39.734 38.0894 46.0014 42.9898 46.2665 43.1995C47.0559 43.8285 47.21 44.9365 46.6221 45.6765C46.0342 46.4123 44.9201 46.5007 44.1329 45.8758C43.9067 45.7032 38.9467 41.923 31.4254 43.6188C31.152 43.6772 30.869 43.6734 30.5973 43.608C30.3255 43.5425 30.0718 43.417 29.855 43.2406V43.2406Z" fill="#65471B"/>
<path d="M26.9668 28.4283C29.3792 28.4283 31.3349 25.984 31.3349 22.9688C31.3349 19.9536 29.3792 17.5092 26.9668 17.5092C24.5544 17.5092 22.5988 19.9536 22.5988 22.9688C22.5988 25.984 24.5544 28.4283 26.9668 28.4283Z" fill="#65471B"/>
<path d="M50.1041 30.6113C52.5165 30.6113 54.4722 28.167 54.4722 25.1518C54.4722 22.1365 52.5165 19.6922 50.1041 19.6922C47.6917 19.6922 45.7361 22.1365 45.7361 25.1518C45.7361 28.167 47.6917 30.6113 50.1041 30.6113Z" fill="#65471B"/>
<path d="M35.5118 72.2507C35.5118 72.2507 38.112 71.4059 38.4492 69.4716C38.8048 67.4736 37.1665 67.0728 37.1665 67.0728C37.1665 67.0728 39.3063 66.6452 39.5756 64.2443C39.8284 61.9812 37.8058 61.4426 37.8058 61.4426C37.8058 61.4426 39.7997 60.6204 39.8942 58.2791C39.9723 56.3078 37.8489 55.3438 37.8489 55.3438C37.8489 55.3438 48.2048 52.8339 49.2696 52.5873C50.3303 52.3406 51.9829 51.3231 51.467 49.1052C50.9552 46.8852 48.9921 46.807 47.9787 47.0434C46.9633 47.2798 34.116 50.2624 29.6843 51.2943L26.7263 51.9809C25.6163 52.2419 25.1127 51.7548 25.8959 50.9284C26.9401 49.8267 27.6082 48.6077 27.8404 46.585C28.085 44.4575 27.3635 41.8305 26.9504 40.811C26.1816 38.9178 24.8845 37.4214 23.386 36.9075C21.0489 36.1058 19.388 37.5673 20.2164 40.1162C21.4579 43.9272 20.6439 47.0537 18.5041 48.9407C13.47 53.3745 11.1288 56.536 12.6869 63.2741C14.3889 70.6227 21.684 75.3525 29.0327 73.6505L35.5118 72.2507Z" fill="#F19020"/>
<path d="M19.1083 13.0548C18.7623 12.8708 18.4816 12.5844 18.3046 12.2347C18.1975 12.0334 18.1334 11.8121 18.1164 11.5848C18.0994 11.3574 18.1298 11.1291 18.2058 10.9141C18.2818 10.6992 18.4016 10.5024 18.5577 10.3362C18.7137 10.17 18.9027 10.0382 19.1124 9.9489C27.8814 6.18518 34.9382 9.86051 35.2342 10.0188C36.1242 10.4936 36.4839 11.5543 36.0379 12.3909C35.5939 13.2234 34.5168 13.5132 33.6267 13.0446C33.3739 12.9151 27.8054 10.101 20.7219 13.1412C20.4635 13.2476 20.1845 13.2951 19.9054 13.2801C19.6263 13.2652 19.354 13.1882 19.1083 13.0548V13.0548ZM44.0525 20.7632C43.7206 20.5562 43.4608 20.2518 43.3084 19.8916C43.2148 19.6834 43.1656 19.4579 43.1639 19.2296C43.1622 19.0013 43.208 18.7752 43.2985 18.5656C43.389 18.356 43.5222 18.1675 43.6895 18.0122C43.8568 17.8569 44.0546 17.7381 44.2704 17.6634C53.2758 14.5061 60.0673 18.6501 60.351 18.8289C61.2041 19.3633 61.4918 20.4466 60.9923 21.2503C60.4949 22.052 59.3972 22.2678 58.5442 21.7396C58.2975 21.5916 52.9387 18.4075 45.662 20.9605C45.3958 21.0484 45.1134 21.0764 44.8351 21.0422C44.5569 21.0081 44.2896 20.9128 44.0525 20.7632V20.7632Z" fill="#65471B"/>
</svg>
